<svg xmlns="http://www.w3.org/2000/svg" viewBox="0 0 376 64" width="376" height="64" role="img" aria-label="Second Shift"><title>Second Shift</title><g transform="translate(0 0)">
  <path d="M19 6h26l13 13v26L45 58H19L6 45V19z" fill="#1c1a18"/>
  <path d="M12 24h19l-3 15H12z" fill="#4a4540"/>
  <path d="M35 24h17v15H32z" fill="#256f85"/></g><path d="M94.82 52.52Q89.05 52.52 86.58 50.06Q84.12 47.59 83.86 41.88Q83.83 40.75 83.83 39.53Q83.83 38.31 83.89 37.11Q83.94 35.91 84.06 34.74L91.11 34.74Q90.99 36.98 90.98 39.17Q90.96 41.36 91.11 43.24Q91.25 44.81 92.14 45.61Q93.02 46.40 94.82 46.40Q96.59 46.40 97.40 45.61Q98.21 44.81 98.36 43.24Q98.47 42.08 98.52 41.04Q98.56 39.99 98.52 38.92Q98.47 37.85 98.36 36.66Q98.27 35.21 97.65 34.11Q97.02 33 95.57 32.63L91.25 31.53Q88.44 30.80 86.81 29.42Q85.19 28.05 84.48 25.96Q83.77 23.87 83.68 21.03Q83.65 19.61 83.65 18.29Q83.65 16.97 83.68 15.66Q83.83 11.86 84.94 9.53Q86.06 7.20 88.45 6.14Q90.84 5.08 94.82 5.08Q100.42 5.08 102.92 7.53Q105.43 9.98 105.66 15.66Q105.72 17 105.69 18.94Q105.66 20.88 105.58 22.68L98.39 22.68Q98.47 20.59 98.50 18.49Q98.53 16.39 98.44 14.30Q98.39 12.76 97.44 11.98Q96.50 11.20 94.82 11.20Q93.02 11.20 92.18 11.98Q91.34 12.76 91.16 14.30Q91.02 15.98 91.02 17.66Q91.02 19.35 91.16 21.03Q91.31 22.54 91.93 23.58Q92.56 24.62 94.12 25L97.92 25.90Q100.91 26.63 102.62 28.06Q104.33 29.50 105.07 31.64Q105.81 33.79 105.90 36.66Q105.92 37.62 105.92 38.47Q105.92 39.33 105.91 40.15Q105.90 40.98 105.84 41.88Q105.61 47.59 103.13 50.06Q100.65 52.52 94.82 52.52M129.56 52L111.23 52L111.23 5.60L129.56 5.60L129.56 12.21L118.74 12.21L118.74 25.15L128.98 25.15L128.98 31.76L118.74 31.76L118.74 45.39L129.56 45.39M145.37 52.55Q139.45 52.55 136.94 50.09Q134.43 47.62 134.32 41.91Q134.26 39.07 134.23 35.70Q134.20 32.34 134.20 28.80Q134.20 25.26 134.23 21.88Q134.26 18.50 134.32 15.63Q134.40 10.70 137 7.89Q139.59 5.08 145.37 5.08Q151.05 5.08 153.60 7.53Q156.15 9.98 156.30 15.66Q156.33 16.68 156.33 17.92Q156.33 19.17 156.30 20.43Q156.27 21.69 156.24 22.68L148.76 22.68Q148.79 21.49 148.82 20Q148.84 18.50 148.84 17Q148.84 15.49 148.82 14.30Q148.79 12.76 147.90 11.98Q147.02 11.20 145.37 11.20Q143.65 11.20 142.75 11.98Q141.86 12.76 141.80 14.30Q141.68 17.66 141.64 21.35Q141.59 25.03 141.59 28.80Q141.59 32.57 141.64 36.24Q141.68 39.91 141.80 43.27Q141.86 44.84 142.75 45.63Q143.65 46.43 145.37 46.43Q147.16 46.43 148.09 45.63Q149.02 44.84 149.05 43.27Q149.08 42.08 149.09 40.55Q149.11 39.01 149.09 37.47Q149.08 35.93 149.05 34.77L156.53 34.77Q156.59 36.43 156.59 38.33Q156.59 40.23 156.53 41.91Q156.39 47.62 153.79 50.09Q151.19 52.55 145.37 52.55M172.97 52.52Q167.17 52.52 164.59 50.07Q162.01 47.62 161.90 41.91Q161.84 38.75 161.79 35.44Q161.75 32.13 161.75 28.79Q161.75 25.44 161.79 22.13Q161.84 18.82 161.90 15.63Q162.01 9.95 164.59 7.51Q167.17 5.08 172.97 5.08Q178.80 5.08 181.33 7.51Q183.85 9.95 184.02 15.63Q184.11 18.85 184.17 22.16Q184.23 25.46 184.23 28.81Q184.23 32.16 184.17 35.46Q184.11 38.75 184.02 41.91Q183.85 47.62 181.33 50.07Q178.80 52.52 172.97 52.52M172.97 46.40Q174.77 46.40 175.64 45.62Q176.51 44.84 176.54 43.27Q176.66 39.99 176.71 36.30Q176.77 32.60 176.77 28.76Q176.77 24.91 176.71 21.23Q176.66 17.55 176.54 14.27Q176.51 12.73 175.61 11.97Q174.71 11.20 172.97 11.20Q171.23 11.20 170.33 11.97Q169.44 12.73 169.38 14.27Q169.26 17.55 169.19 21.23Q169.12 24.91 169.12 28.76Q169.12 32.60 169.19 36.30Q169.26 39.99 169.38 43.27Q169.44 44.84 170.33 45.62Q171.23 46.40 172.97 46.40M197.28 52L190.03 52L190.03 5.60L201.10 5.60L204.38 20.36L207.74 45.39L209.19 45.39L207.83 24.62L207.22 5.60L214.47 5.60L214.47 52L202.87 52L199.54 36.46L196.93 12.15L195.36 12.15L196.64 34.31M231.32 52L220.65 52L220.65 5.60L231.35 5.60Q237.24 5.60 239.88 8.12Q242.52 10.65 242.60 16.45Q242.69 20.85 242.72 24.81Q242.75 28.77 242.72 32.73Q242.69 36.69 242.60 41.10Q242.52 46.92 239.88 49.46Q237.24 52 231.32 52M228.16 12.21L228.16 45.39L231.32 45.39Q233.21 45.39 234.15 44.52Q235.09 43.65 235.12 41.99Q235.21 38.66 235.25 35.37Q235.29 32.08 235.29 28.77Q235.29 25.46 235.25 22.16Q235.21 18.85 235.12 15.58Q235.09 13.92 234.15 13.07Q233.21 12.21 231.35 12.21M272.62 52.52Q266.85 52.52 264.38 50.06Q261.92 47.59 261.65 41.88Q261.63 40.75 261.63 39.53Q261.63 38.31 261.68 37.11Q261.74 35.91 261.86 34.74L268.90 34.74Q268.79 36.98 268.77 39.17Q268.76 41.36 268.90 43.24Q269.05 44.81 269.93 45.61Q270.82 46.40 272.62 46.40Q274.39 46.40 275.20 45.61Q276.01 44.81 276.15 43.24Q276.27 42.08 276.31 41.04Q276.36 39.99 276.31 38.92Q276.27 37.85 276.15 36.66Q276.07 35.21 275.44 34.11Q274.82 33 273.37 32.63L269.05 31.53Q266.24 30.80 264.61 29.42Q262.99 28.05 262.28 25.96Q261.57 23.87 261.48 21.03Q261.45 19.61 261.45 18.29Q261.45 16.97 261.48 15.66Q261.63 11.86 262.74 9.53Q263.86 7.20 266.25 6.14Q268.64 5.08 272.62 5.08Q278.21 5.08 280.72 7.53Q283.23 9.98 283.46 15.66Q283.52 17 283.49 18.94Q283.46 20.88 283.38 22.68L276.18 22.68Q276.27 20.59 276.30 18.49Q276.33 16.39 276.24 14.30Q276.18 12.76 275.24 11.98Q274.30 11.20 272.62 11.20Q270.82 11.20 269.98 11.98Q269.14 12.76 268.96 14.30Q268.82 15.98 268.82 17.66Q268.82 19.35 268.96 21.03Q269.11 22.54 269.73 23.58Q270.35 24.62 271.92 25L275.72 25.90Q278.71 26.63 280.42 28.06Q282.13 29.50 282.87 31.64Q283.61 33.79 283.69 36.66Q283.72 37.62 283.72 38.47Q283.72 39.33 283.71 40.15Q283.69 40.98 283.64 41.88Q283.40 47.59 280.93 50.06Q278.45 52.52 272.62 52.52M296.54 52L289.03 52L289.03 5.60L296.54 5.60L296.54 25.15L302.95 25.15L302.95 5.60L310.43 5.60L310.43 52L302.95 52L302.95 31.76L296.54 31.76M324.09 52L316.58 52L316.58 5.60L324.09 5.60M337.75 52L330.24 52L330.24 5.60L348.57 5.60L348.57 12.21L337.75 12.21L337.75 25.15L347.99 25.15L347.99 31.76L337.75 31.76M365.71 52L358.22 52L358.22 12.21L351.18 12.21L351.18 5.60L372.78 5.60L372.78 12.21L365.71 12.21" fill="#1c1a18"/></svg>
